<svg xmlns="http://www.w3.org/2000/svg" xmlns:xlink="http://www.w3.org/1999/xlink" width="70" zoomAndPan="magnify" viewBox="0 0 52.5 52.499999" height="70" preserveAspectRatio="xMidYMid meet" version="1.0"><defs><clipPath id="2e73764a28"><path d="M 0.519531 1 L 51.78125 1 L 51.78125 52.003906 L 0.519531 52.003906 Z M 0.519531 1 " clip-rule="nonzero"/></clipPath></defs><g clip-path="url(#2e73764a28)"><path fill="#ffffff" d="M 26 1.0625 C 11.929688 1.0625 0.519531 12.46875 0.519531 26.542969 C 0.519531 40.613281 11.929688 52.023438 26 52.023438 C 40.070312 52.023438 51.480469 40.613281 51.480469 26.542969 C 51.480469 12.46875 40.070312 1.0625 26 1.0625 Z M 4.765625 26.542969 C 4.765625 14.816406 14.273438 5.308594 26 5.308594 C 37.726562 5.308594 47.234375 14.816406 47.234375 26.542969 C 47.234375 36.097656 40.921875 44.179688 32.238281 46.84375 C 32.476562 42.550781 32.394531 39.894531 31.996094 38.871094 C 31.574219 37.789062 31.226562 37.34375 31.023438 37.078125 C 30.886719 36.902344 30.8125 36.804688 30.8125 36.65625 C 30.8125 36.398438 30.988281 36.214844 31.347656 36.101562 C 34.476562 35.410156 36.574219 33.484375 37.644531 30.332031 C 39.121094 25.960938 37.011719 22.785156 36.15625 21.5 C 36.085938 21.394531 36.023438 21.300781 35.972656 21.21875 C 35.308594 20.171875 36.179688 17.621094 37.21875 15.578125 C 33.683594 14.871094 32.335938 16.511719 31.5625 17.453125 C 31.246094 17.835938 31.027344 18.105469 30.792969 18.046875 C 30.582031 17.996094 30.359375 17.898438 30.089844 17.78125 C 29.320312 17.441406 28.179688 16.941406 26 16.941406 C 23.296875 16.941406 21.503906 17.886719 21.230469 18.03125 C 21.207031 18.042969 21.195312 18.046875 21.195312 18.046875 C 19.773438 16.066406 17.753906 15.246094 15.140625 15.578125 C 15.859375 18.457031 15.914062 20.335938 15.300781 21.21875 C 14.382812 22.542969 12.664062 25.621094 14 30.332031 C 15.335938 35.042969 20.199219 36.101562 21.125 36.101562 L 21.128906 36.101562 C 21.203125 36.117188 21.886719 36.265625 21.679688 36.839844 C 21.640625 36.992188 21.613281 37.203125 21.582031 37.4375 C 21.488281 38.191406 21.355469 39.214844 20.632812 39.550781 C 19.683594 39.984375 17.59375 40.226562 16.71875 39.679688 C 16.425781 39.496094 16.214844 39.117188 15.964844 38.660156 C 15.457031 37.742188 14.78125 36.515625 12.933594 35.945312 C 10.15625 35.085938 10.332031 36.21875 11.023438 36.5 C 11.175781 36.558594 11.378906 36.617188 11.609375 36.683594 C 12.425781 36.914062 13.601562 37.246094 14.203125 38.214844 C 14.378906 38.5 14.5625 38.8125 14.746094 39.128906 C 15.375 40.203125 16.046875 41.351562 16.71875 41.792969 C 17.296875 42.175781 18.6875 42.328125 20.886719 42.253906 C 20.789062 44.328125 20.738281 45.949219 20.734375 47.117188 C 11.554688 44.773438 4.765625 36.449219 4.765625 26.542969 Z M 4.765625 26.542969 " fill-opacity="0.85" fill-rule="evenodd"/></g></svg>